<?xml version="1.0" ?><!DOCTYPE svg  PUBLIC '-//W3C//DTD SVG 1.1//EN'  'http://www.w3.org/Graphics/SVG/1.1/DTD/svg11.dtd'><svg enable-background="new 0 0 56.693 56.693" height="56.693px" id="Layer_1" version="1.1" viewBox="0 0 56.693 56.693" width="56.693px" xml:space="preserve" xmlns="http://www.w3.org/2000/svg" xmlns:xlink="http://www.w3.org/1999/xlink"><g><path d="M26.062,45.522c0.092,0.143,0.287,0.297,0.559,0.295c0.235,0,0.439-0.16,0.693-0.344   c0,0,4.252-3.365,6.886-5.404c0.046-0.041,0.27-0.262,0.278-0.609c0.002-0.17-0.045-0.424-0.293-0.668   c-0.014-0.014-0.028-0.027-0.044-0.039L27.1,33.255c-0.154-0.115-0.306-0.203-0.474-0.203c-0.243,0.002-0.563,0.162-0.622,0.494   c-0.025,0.145-0.023,0.385-0.023,0.385l0.002,11.326C25.982,45.351,26.011,45.444,26.062,45.522z" fill="#474A56"/><path d="M49.452,24.616H21.904l26.757-7.151c0.43-0.112,0.795-0.395,1.018-0.778   c0.222-0.387,0.282-0.842,0.167-1.271l-2.588-9.687c-0.238-0.894-1.152-1.424-2.049-1.185L6.136,14.984   c-0.894,0.238-1.424,1.155-1.185,2.048l2.407,9.014c-0.012,0.078-0.024,0.158-0.024,0.241v26.296c0,0.926,0.75,1.674,1.674,1.674   h40.444c0.925,0,1.674-0.748,1.674-1.674V26.287C51.126,25.364,50.377,24.616,49.452,24.616z M45.638,12.632l0.543,2.03   l-2.366,0.633L45.638,12.632z M44.456,8.209l0.154,0.579l-5.271,7.701l-4.274,1.144l5.794-8.461L44.456,8.209z M36.382,10.367   l-5.792,8.461l-4.273,1.143l5.793-8.461L36.382,10.367z M27.632,12.706l-5.792,8.46l-4.272,1.142l5.792-8.46L27.632,12.706z    M18.883,15.041l-5.792,8.463l-2.749,0.735l-0.35-1.307l4.619-6.748L18.883,15.041z M10.135,17.38l-1.17,1.708l-0.348-1.302   L10.135,17.38z M47.778,50.909H10.682V27.961h37.097V50.909z" fill="#474A56"/></g></svg>