<?xml version="1.0" ?><svg id="icons" viewBox="0 0 340 340" xmlns="http://www.w3.org/2000/svg"><title/><rect height="123.276" style="fill:#ffd28a" width="178.341" x="28.056" y="77.287"/><path d="M33.8,30.586H191.738a10.2,10.2,0,0,1,10.2,10.2V60.1a0,0,0,0,1,0,0H23.6a0,0,0,0,1,0,0V40.79a10.2,10.2,0,0,1,10.2-10.2Z" style="fill:#ffd28a" transform="translate(-6.699 22.978) rotate(-11.301)"/><polygon points="102.964 114.856 102.964 154.563 137.842 134.709 102.964 114.856" style="fill:#fff"/><polygon points="40.536 74.826 65.547 69.828 80.436 36.756 55.424 41.754 40.536 74.826" style="fill:#5f7284"/><polygon points="92.873 64.367 117.884 59.369 132.773 26.297 107.762 31.295 92.873 64.367" style="fill:#5f7284"/><polygon points="145.761 53.892 170.772 48.893 185.661 15.821 160.649 20.82 145.761 53.892" style="fill:#5f7284"/><path d="M206.4,200.563V133.588a103.4,103.4,0,0,0-67.406,66.975Z" style="fill:#e89f64"/><path d="M170,284.775s-37.341-6.7-74.473,8.767a72.235,72.235,0,0,1-50.681,2A64.455,64.455,0,0,1,11.654,270.72a.905.905,0,0,0-1.654.509v11.989a34.9,34.9,0,0,0,14.3,28.32c11.3,8.172,30.266,15.2,60.255,8.951a80.669,80.669,0,0,0,9.757-2.772c14.492-4.982,66.446-14.675,108.927.738Z" style="fill:#5f7284"/><circle cx="237.06" cy="231.865" r="92.94" style="fill:#e2e3e8"/><circle cx="237.06" cy="231.865" r="13.172" style="fill:#5f7284"/><path d="M237.06,160a71.642,71.642,0,0,0-26.256,4.97L227.5,199.361a10.629,10.629,0,0,0,9.562,5.988h0a10.629,10.629,0,0,0,9.562-5.988l16.694-34.394A71.642,71.642,0,0,0,237.06,160Z" style="fill:#5f7284"/><path d="M237.06,303.733a71.642,71.642,0,0,1-26.256-4.97L227.5,264.369a10.629,10.629,0,0,1,9.562-5.988h0a10.629,10.629,0,0,1,9.562,5.988l16.694,34.394A71.642,71.642,0,0,1,237.06,303.733Z" style="fill:#5f7284"/><path d="M299.807,196.824a71.63,71.63,0,0,0-17.142-20.5l-21.889,31.345a10.631,10.631,0,0,0-.565,11.268h0a10.63,10.63,0,0,0,9.89,5.43l38.168-2.2A71.628,71.628,0,0,0,299.807,196.824Z" style="fill:#5f7284"/><path d="M174.313,266.906a71.628,71.628,0,0,1-8.462-25.347l38.168-2.195a10.63,10.63,0,0,1,9.89,5.43h0a10.629,10.629,0,0,1-.566,11.268l-21.888,31.345A71.63,71.63,0,0,1,174.313,266.906Z" style="fill:#5f7284"/><path d="M298.278,269.811a71.655,71.655,0,0,0,9.521-24.969l-38.042-3.8a10.628,10.628,0,0,0-10.11,5.008h0a10.63,10.63,0,0,0,.091,11.282l20.551,32.238A71.64,71.64,0,0,0,298.278,269.811Z" style="fill:#5f7284"/><path d="M175.842,194.514a71.638,71.638,0,0,1,17.988-19.762l20.552,32.237a10.631,10.631,0,0,1,.091,11.283h0a10.632,10.632,0,0,1-10.11,5.008l-38.042-3.8A71.647,71.647,0,0,1,175.842,194.514Z" style="fill:#5f7284"/><path d="M206.4,128.631a4,4,0,0,0,4-4V77.287a4,4,0,0,0-4-4H68.649l25.008-5h0l25.011-5h0l27.047-5.4c.015,0,.03.006.046.006a4.024,4.024,0,0,0,.784-.078l25.011-5a3.962,3.962,0,0,0,.729-.239l31.6-6.316a4,4,0,0,0,3.138-4.706l-3.784-18.934a14.2,14.2,0,0,0-16.712-11.146l-54.539,10.9h0L112.327,26.3,79.656,32.833h-.005l-25.01,5h0L31.66,42.424A14.2,14.2,0,0,0,20.515,59.136L24.084,77c-.006.1-.028.187-.028.285V200.563a4,4,0,0,0,4,4H129.238a4,4,0,0,0,0-8H32.056V81.287H202.4v43.344A4,4,0,0,0,206.4,128.631ZM68.8,43.16l4.8-.958L62.744,66.309,47.374,69.38,58.228,45.273Zm32.125-6.419L90.071,60.848,72.385,64.382,83.238,40.275Zm52.933-10.578L143.005,50.27l-18.283,3.653,10.854-24.107Zm-1.212,22.18,10.807-24,15.37-3.072L168.015,45.272Zm-26.71-16.6L115.081,55.85l-8.316,1.662-7.054,1.409,10.853-24.107,12.775-2.553ZM195.4,24.187l3,15.013-20.742,4.145L188.5,19.26a6.248,6.248,0,0,1,.828-.062,6.205,6.205,0,0,1,6.069,4.989ZM29.282,52.91a6.166,6.166,0,0,1,3.946-2.641L48.586,47.2,37.734,71.307,31.359,72.58l-3-15.012A6.16,6.16,0,0,1,29.282,52.91Z" style="fill:#393e66"/><path d="M21.951,314.778c8.3,6,21.5,12.089,40.9,12.089A110.415,110.415,0,0,0,85.367,324.4,83.711,83.711,0,0,0,95.609,321.5c8.487-2.917,25.492-6.357,45.327-7.2.029,0,.057,0,.085,0s.08-.012.12-.013c19.325-.8,41.31.874,60.729,7.92.06.022.12.027.18.046A97.2,97.2,0,1,0,176.99,307.9a189.934,189.934,0,0,0-33.548-1.738L134.6,288.074c2.191-.215,4.4-.4,6.637-.517a4,4,0,1,0-.433-7.988A141.309,141.309,0,0,0,93.989,289.85a68.094,68.094,0,0,1-47.87,1.9,60.544,60.544,0,0,1-32.736-25.672A4,4,0,0,0,6,268.216v15A38.975,38.975,0,0,0,21.951,314.778ZM148.12,231.865a88.94,88.94,0,1,1,88.94,88.94A89.042,89.042,0,0,1,148.12,231.865Zm-21.9,57.29,8.541,17.463a207.87,207.87,0,0,0-37.347,5.992l-2.733-14.444c.8-.3,1.595-.6,2.384-.932A126.986,126.986,0,0,1,126.22,289.155ZM14,280.142a67.928,67.928,0,0,0,26.846,18.216V309.2a4,4,0,0,0,8,0v-8.329a75.831,75.831,0,0,0,38.161-.235l2.717,14.365c-2.166.666-4.122,1.179-5.989,1.568-29.3,6.1-47.219-1.132-57.094-8.276A30.957,30.957,0,0,1,14,283.218Z" style="fill:#393e66"/><path d="M237.06,214.693a17.172,17.172,0,1,0,17.172,17.172A17.191,17.191,0,0,0,237.06,214.693Zm0,26.344a9.172,9.172,0,1,1,9.172-9.172A9.182,9.182,0,0,1,237.06,241.037Z" style="fill:#393e66"/><path d="M223.9,201.108a14.63,14.63,0,0,0,26.323,0l16.694-34.393a4,4,0,0,0-2.136-5.47,75.827,75.827,0,0,0-55.438,0,4,4,0,0,0-2.136,5.47ZM237.06,164a67.526,67.526,0,0,1,20.711,3.237l-14.748,30.382a6.629,6.629,0,0,1-11.927,0L216.35,167.233A67.511,67.511,0,0,1,237.06,164Z" style="fill:#393e66"/><path d="M264.779,302.486a4,4,0,0,0,2.136-5.469l-16.694-34.394a14.63,14.63,0,0,0-26.323,0l-16.693,34.394a4,4,0,0,0,2.136,5.469,75.841,75.841,0,0,0,55.438,0ZM231.1,266.117a6.628,6.628,0,0,1,11.927,0L257.771,296.5a67.892,67.892,0,0,1-41.421,0Z" style="fill:#393e66"/><path d="M256.719,220.887a14.723,14.723,0,0,0,12.788,7.5q.411,0,.824-.024l38.168-2.2a4,4,0,0,0,3.734-4.531,75.832,75.832,0,0,0-27.031-48.4,4,4,0,0,0-5.816.8L257.5,205.378A14.714,14.714,0,0,0,256.719,220.887Zm7.337-10.929,19.335-27.688a67.512,67.512,0,0,1,12.923,16.5h0a67.508,67.508,0,0,1,7.273,19.66l-33.715,1.938a6.629,6.629,0,0,1-5.816-10.414Z" style="fill:#393e66"/><path d="M217.4,242.843a14.7,14.7,0,0,0-13.612-7.472l-38.168,2.195a4,4,0,0,0-3.734,4.532,75.84,75.84,0,0,0,27.031,48.4,4,4,0,0,0,5.816-.8l21.889-31.345A14.716,14.716,0,0,0,217.4,242.843Zm-7.337,10.929-19.335,27.687a67.494,67.494,0,0,1-12.923-16.5h0a67.5,67.5,0,0,1-7.273-19.659l33.715-1.938a6.629,6.629,0,0,1,5.816,10.414Z" style="fill:#393e66"/><path d="M308.2,240.862l-38.042-3.8a14.628,14.628,0,0,0-13.789,22.421l20.551,32.237a4,4,0,0,0,5.778,1.046,75.511,75.511,0,0,0,18.992-20.862h0a75.506,75.506,0,0,0,10.05-26.359,4,4,0,0,0-3.54-4.685Zm-13.325,26.853a67.529,67.529,0,0,1-13.606,15.947l-18.154-28.477a6.628,6.628,0,0,1,5.6-10.192,6.375,6.375,0,0,1,.648.032l33.6,3.354A67.5,67.5,0,0,1,294.871,267.715Z" style="fill:#393e66"/><path d="M165.924,223.463l38.042,3.8a14.272,14.272,0,0,0,1.429.071,14.628,14.628,0,0,0,12.36-22.492L197.2,172.6a4,4,0,0,0-5.778-1.045,75.5,75.5,0,0,0-18.99,20.862h0a75.528,75.528,0,0,0-10.051,26.36,4,4,0,0,0,3.54,4.685Zm13.325-26.854a67.543,67.543,0,0,1,13.606-15.946l18.154,28.477a6.629,6.629,0,0,1-6.248,10.16l-33.6-3.354A67.522,67.522,0,0,1,179.249,196.609Z" style="fill:#393e66"/><path d="M104.942,111.38a4,4,0,0,0-5.978,3.476v39.707a4,4,0,0,0,5.978,3.476l34.878-19.854a4,4,0,0,0,0-6.952Zm2.022,36.3V121.735l22.792,12.974Z" style="fill:#393e66"/></svg>